<mxfile host="app.diagrams.net" agent="Mozilla/5.0 (Windows NT 10.0; Win64; x64) AppleWebKit/537.36 (KHTML, like Gecko) Chrome/127.0.0.0 Safari/537.36" version="24.7.5">
  <diagram name="Page-1" id="2YBvvXClWsGukQMizWep">
    <mxGraphModel dx="1434" dy="780" grid="1" gridSize="10" guides="1" tooltips="1" connect="1" arrows="1" fold="1" page="1" pageScale="1" pageWidth="850" pageHeight="1100" math="0" shadow="0">
      <root>
        <mxCell id="0" />
        <mxCell id="1" parent="0" />
        <mxCell id="H9_4wdnQaWu5EiNkPN5X-51" value="&lt;font style=&quot;font-size: 10px;&quot;&gt;Send successful/ unsuccessful message&lt;/font&gt;" style="html=1;verticalAlign=bottom;endArrow=open;dashed=1;endSize=8;curved=0;rounded=0;" parent="1" target="H9_4wdnQaWu5EiNkPN5X-8" edge="1">
          <mxGeometry relative="1" as="geometry">
            <mxPoint x="420" y="1060" as="sourcePoint" />
            <mxPoint x="340" y="1060" as="targetPoint" />
          </mxGeometry>
        </mxCell>
        <mxCell id="H9_4wdnQaWu5EiNkPN5X-35" value="" style="line;strokeWidth=1;fillColor=none;align=left;verticalAlign=middle;spacingTop=-1;spacingLeft=3;spacingRight=3;rotatable=0;labelPosition=right;points=[];portConstraint=eastwest;strokeColor=inherit;dashed=1;" parent="1" vertex="1">
          <mxGeometry x="40" y="660" width="780" height="8" as="geometry" />
        </mxCell>
        <mxCell id="H9_4wdnQaWu5EiNkPN5X-25" value="" style="line;strokeWidth=1;fillColor=none;align=left;verticalAlign=middle;spacingTop=-1;spacingLeft=3;spacingRight=3;rotatable=0;labelPosition=right;points=[];portConstraint=eastwest;strokeColor=inherit;dashed=1;" parent="1" vertex="1">
          <mxGeometry x="70" y="450" width="380" height="8" as="geometry" />
        </mxCell>
        <mxCell id="H9_4wdnQaWu5EiNkPN5X-8" value="" style="shape=umlLifeline;perimeter=lifelinePerimeter;whiteSpace=wrap;html=1;container=1;dropTarget=0;collapsible=0;recursiveResize=0;outlineConnect=0;portConstraint=eastwest;newEdgeStyle={&quot;curved&quot;:0,&quot;rounded&quot;:0};participant=umlActor;" parent="1" vertex="1">
          <mxGeometry x="80" y="80" width="20" height="1000" as="geometry" />
        </mxCell>
        <mxCell id="H9_4wdnQaWu5EiNkPN5X-9" value="App" style="shape=umlLifeline;perimeter=lifelinePerimeter;whiteSpace=wrap;html=1;container=1;dropTarget=0;collapsible=0;recursiveResize=0;outlineConnect=0;portConstraint=eastwest;newEdgeStyle={&quot;curved&quot;:0,&quot;rounded&quot;:0};" parent="1" vertex="1">
          <mxGeometry x="370" y="80" width="100" height="1000" as="geometry" />
        </mxCell>
        <mxCell id="H9_4wdnQaWu5EiNkPN5X-11" value="" style="html=1;points=[[0,0,0,0,5],[0,1,0,0,-5],[1,0,0,0,5],[1,1,0,0,-5]];perimeter=orthogonalPerimeter;outlineConnect=0;targetShapes=umlLifeline;portConstraint=eastwest;newEdgeStyle={&quot;curved&quot;:0,&quot;rounded&quot;:0};" parent="H9_4wdnQaWu5EiNkPN5X-9" vertex="1">
          <mxGeometry x="45" y="70" width="10" height="920" as="geometry" />
        </mxCell>
        <mxCell id="H9_4wdnQaWu5EiNkPN5X-10" value="API" style="shape=umlLifeline;perimeter=lifelinePerimeter;whiteSpace=wrap;html=1;container=1;dropTarget=0;collapsible=0;recursiveResize=0;outlineConnect=0;portConstraint=eastwest;newEdgeStyle={&quot;curved&quot;:0,&quot;rounded&quot;:0};" parent="1" vertex="1">
          <mxGeometry x="690" y="80" width="100" height="1000" as="geometry" />
        </mxCell>
        <mxCell id="H9_4wdnQaWu5EiNkPN5X-12" value="" style="html=1;points=[[0,0,0,0,5],[0,1,0,0,-5],[1,0,0,0,5],[1,1,0,0,-5]];perimeter=orthogonalPerimeter;outlineConnect=0;targetShapes=umlLifeline;portConstraint=eastwest;newEdgeStyle={&quot;curved&quot;:0,&quot;rounded&quot;:0};" parent="H9_4wdnQaWu5EiNkPN5X-10" vertex="1">
          <mxGeometry x="45" y="70" width="10" height="80" as="geometry" />
        </mxCell>
        <mxCell id="H9_4wdnQaWu5EiNkPN5X-13" value="Request: Bank A/C information ( Product, Account No)" style="html=1;verticalAlign=bottom;endArrow=block;curved=0;rounded=0;entryX=0;entryY=0;entryDx=0;entryDy=5;" parent="1" edge="1">
          <mxGeometry relative="1" as="geometry">
            <mxPoint x="430" y="180" as="sourcePoint" />
            <mxPoint x="735" y="180" as="targetPoint" />
          </mxGeometry>
        </mxCell>
        <mxCell id="H9_4wdnQaWu5EiNkPN5X-14" value="" style="html=1;verticalAlign=bottom;endArrow=open;dashed=1;endSize=8;curved=0;rounded=0;" parent="1" edge="1">
          <mxGeometry relative="1" as="geometry">
            <mxPoint x="425" y="230" as="targetPoint" />
            <mxPoint x="735.5" y="229.5" as="sourcePoint" />
          </mxGeometry>
        </mxCell>
        <mxCell id="H9_4wdnQaWu5EiNkPN5X-16" value="&lt;span style=&quot;font-size: 10px;&quot;&gt;Bank A/C information (Account name, Account no, Bank name,&lt;/span&gt;&lt;div&gt;&lt;span style=&quot;font-size: 10px;&quot;&gt;Branch name, Routing no)&lt;/span&gt;&lt;/div&gt;" style="text;html=1;align=center;verticalAlign=middle;resizable=0;points=[];autosize=1;strokeColor=none;fillColor=none;" parent="1" vertex="1">
          <mxGeometry x="440" y="193" width="300" height="40" as="geometry" />
        </mxCell>
        <mxCell id="H9_4wdnQaWu5EiNkPN5X-17" style="edgeStyle=orthogonalEdgeStyle;rounded=0;orthogonalLoop=1;jettySize=auto;html=1;curved=0;dashed=1;" parent="1" target="H9_4wdnQaWu5EiNkPN5X-8" edge="1">
          <mxGeometry relative="1" as="geometry">
            <mxPoint x="415" y="270" as="sourcePoint" />
            <mxPoint x="120" y="271" as="targetPoint" />
            <Array as="points">
              <mxPoint x="330" y="270" />
              <mxPoint x="330" y="270" />
            </Array>
          </mxGeometry>
        </mxCell>
        <mxCell id="H9_4wdnQaWu5EiNkPN5X-18" value="&lt;font style=&quot;font-size: 10px;&quot;&gt;Display Bank A/C information&lt;/font&gt;" style="text;html=1;align=center;verticalAlign=middle;resizable=0;points=[];autosize=1;strokeColor=none;fillColor=none;" parent="1" vertex="1">
          <mxGeometry x="180" y="238" width="150" height="30" as="geometry" />
        </mxCell>
        <mxCell id="H9_4wdnQaWu5EiNkPN5X-19" value="&lt;font style=&quot;font-size: 10px;&quot;&gt;Withdrawal Amount Input&lt;/font&gt;" style="html=1;verticalAlign=bottom;endArrow=block;curved=0;rounded=0;entryX=0.5;entryY=0.643;entryDx=0;entryDy=0;entryPerimeter=0;" parent="1" edge="1">
          <mxGeometry width="80" relative="1" as="geometry">
            <mxPoint x="90" y="310" as="sourcePoint" />
            <mxPoint x="410" y="310.03999999999996" as="targetPoint" />
          </mxGeometry>
        </mxCell>
        <mxCell id="H9_4wdnQaWu5EiNkPN5X-21" value="Alt" style="shape=umlFrame;whiteSpace=wrap;html=1;pointerEvents=0;" parent="1" vertex="1">
          <mxGeometry x="70" y="340" width="380" height="170" as="geometry" />
        </mxCell>
        <mxCell id="H9_4wdnQaWu5EiNkPN5X-22" value="&lt;font style=&quot;font-size: 10px;&quot;&gt;[ Amount &amp;gt;= 1,00,000 ]&lt;/font&gt;" style="text;html=1;align=center;verticalAlign=middle;resizable=0;points=[];autosize=1;strokeColor=none;fillColor=none;" parent="1" vertex="1">
          <mxGeometry x="85" y="370" width="120" height="30" as="geometry" />
        </mxCell>
        <mxCell id="H9_4wdnQaWu5EiNkPN5X-24" value="&lt;font style=&quot;font-size: 10px;&quot;&gt;Display withdrawal mode: RTGS/ BEFTN/ Cheque&lt;/font&gt;" style="html=1;verticalAlign=bottom;endArrow=open;dashed=1;endSize=8;curved=0;rounded=0;" parent="1" edge="1">
          <mxGeometry x="0.0312" y="-10" relative="1" as="geometry">
            <mxPoint x="415.25" y="430" as="sourcePoint" />
            <mxPoint x="94.75" y="430" as="targetPoint" />
            <mxPoint as="offset" />
          </mxGeometry>
        </mxCell>
        <mxCell id="H9_4wdnQaWu5EiNkPN5X-26" value="&lt;font style=&quot;font-size: 10px;&quot;&gt;[ else ]&lt;/font&gt;" style="text;html=1;align=center;verticalAlign=middle;resizable=0;points=[];autosize=1;strokeColor=none;fillColor=none;" parent="1" vertex="1">
          <mxGeometry x="85" y="458" width="50" height="30" as="geometry" />
        </mxCell>
        <mxCell id="H9_4wdnQaWu5EiNkPN5X-27" value="&lt;font style=&quot;font-size: 10px;&quot;&gt;Display withdrawal mode: BEFTN/ Cheque&lt;/font&gt;" style="html=1;verticalAlign=bottom;endArrow=open;dashed=1;endSize=8;curved=0;rounded=0;" parent="1" target="H9_4wdnQaWu5EiNkPN5X-8" edge="1">
          <mxGeometry relative="1" as="geometry">
            <mxPoint x="410" y="500" as="sourcePoint" />
            <mxPoint x="330" y="500" as="targetPoint" />
          </mxGeometry>
        </mxCell>
        <mxCell id="H9_4wdnQaWu5EiNkPN5X-28" value="Alt" style="shape=umlFrame;whiteSpace=wrap;html=1;pointerEvents=0;" parent="1" vertex="1">
          <mxGeometry x="40" y="530" width="780" height="490" as="geometry" />
        </mxCell>
        <mxCell id="H9_4wdnQaWu5EiNkPN5X-30" value="&lt;font style=&quot;font-size: 10px;&quot;&gt;[ Withdrawal mode: BEFTN/ RTGS ]&lt;/font&gt;" style="text;html=1;align=center;verticalAlign=middle;resizable=0;points=[];autosize=1;strokeColor=none;fillColor=none;" parent="1" vertex="1">
          <mxGeometry x="85" y="560" width="180" height="30" as="geometry" />
        </mxCell>
        <mxCell id="H9_4wdnQaWu5EiNkPN5X-31" value="" style="html=1;verticalAlign=bottom;endArrow=block;curved=0;rounded=0;" parent="1" edge="1">
          <mxGeometry width="80" relative="1" as="geometry">
            <mxPoint x="425" y="610" as="sourcePoint" />
            <mxPoint x="735" y="610" as="targetPoint" />
          </mxGeometry>
        </mxCell>
        <mxCell id="H9_4wdnQaWu5EiNkPN5X-32" value="" style="html=1;points=[[0,0,0,0,5],[0,1,0,0,-5],[1,0,0,0,5],[1,1,0,0,-5]];perimeter=orthogonalPerimeter;outlineConnect=0;targetShapes=umlLifeline;portConstraint=eastwest;newEdgeStyle={&quot;curved&quot;:0,&quot;rounded&quot;:0};" parent="1" vertex="1">
          <mxGeometry x="735" y="600" width="10" height="60" as="geometry" />
        </mxCell>
        <mxCell id="H9_4wdnQaWu5EiNkPN5X-33" value="&lt;span style=&quot;font-size: 10px;&quot;&gt;Submit request ( Withdrawal amount, Bank information,&lt;/span&gt;&lt;div&gt;&lt;span style=&quot;font-size: 10px;&quot;&gt;Withdrawal mode )&lt;/span&gt;&lt;/div&gt;" style="text;html=1;align=center;verticalAlign=middle;resizable=0;points=[];autosize=1;strokeColor=none;fillColor=none;" parent="1" vertex="1">
          <mxGeometry x="450" y="570" width="270" height="40" as="geometry" />
        </mxCell>
        <mxCell id="H9_4wdnQaWu5EiNkPN5X-34" value="&lt;font style=&quot;font-size: 10px;&quot;&gt;Response&lt;/font&gt;" style="html=1;verticalAlign=bottom;endArrow=open;dashed=1;endSize=8;curved=0;rounded=0;" parent="1" edge="1">
          <mxGeometry x="-0.0164" y="-10" relative="1" as="geometry">
            <mxPoint x="730" y="650" as="sourcePoint" />
            <mxPoint x="425" y="650" as="targetPoint" />
            <mxPoint as="offset" />
          </mxGeometry>
        </mxCell>
        <mxCell id="H9_4wdnQaWu5EiNkPN5X-36" value="&lt;font style=&quot;font-size: 10px;&quot;&gt;[ else ]&lt;/font&gt;" style="text;html=1;align=center;verticalAlign=middle;resizable=0;points=[];autosize=1;strokeColor=none;fillColor=none;" parent="1" vertex="1">
          <mxGeometry x="85" y="660" width="50" height="30" as="geometry" />
        </mxCell>
        <mxCell id="H9_4wdnQaWu5EiNkPN5X-37" value="Select cheque retrieval type" style="html=1;verticalAlign=bottom;endArrow=block;curved=0;rounded=0;" parent="1" edge="1">
          <mxGeometry x="-0.0312" y="10" width="80" relative="1" as="geometry">
            <mxPoint x="94.5" y="710" as="sourcePoint" />
            <mxPoint x="415.5" y="710" as="targetPoint" />
            <mxPoint x="1" as="offset" />
          </mxGeometry>
        </mxCell>
        <mxCell id="H9_4wdnQaWu5EiNkPN5X-39" value="Alt" style="shape=umlFrame;whiteSpace=wrap;html=1;pointerEvents=0;" parent="1" vertex="1">
          <mxGeometry x="60" y="730" width="740" height="260" as="geometry" />
        </mxCell>
        <mxCell id="H9_4wdnQaWu5EiNkPN5X-40" value="&lt;font style=&quot;font-size: 10px;&quot;&gt;[ Via Third Party ]&lt;/font&gt;" style="text;html=1;align=center;verticalAlign=middle;resizable=0;points=[];autosize=1;strokeColor=none;fillColor=none;" parent="1" vertex="1">
          <mxGeometry x="85" y="760" width="100" height="30" as="geometry" />
        </mxCell>
        <mxCell id="H9_4wdnQaWu5EiNkPN5X-41" value="&lt;font style=&quot;font-size: 10px;&quot;&gt;Display authorization form&lt;/font&gt;" style="html=1;verticalAlign=bottom;endArrow=open;dashed=1;endSize=8;curved=0;rounded=0;" parent="1" edge="1">
          <mxGeometry relative="1" as="geometry">
            <mxPoint x="410" y="790" as="sourcePoint" />
            <mxPoint x="90" y="790" as="targetPoint" />
          </mxGeometry>
        </mxCell>
        <mxCell id="H9_4wdnQaWu5EiNkPN5X-42" value="Authorization form fill up" style="html=1;verticalAlign=bottom;endArrow=block;curved=0;rounded=0;" parent="1" target="H9_4wdnQaWu5EiNkPN5X-11" edge="1">
          <mxGeometry width="80" relative="1" as="geometry">
            <mxPoint x="90" y="820" as="sourcePoint" />
            <mxPoint x="170" y="820" as="targetPoint" />
          </mxGeometry>
        </mxCell>
        <mxCell id="H9_4wdnQaWu5EiNkPN5X-43" value="" style="html=1;points=[[0,0,0,0,5],[0,1,0,0,-5],[1,0,0,0,5],[1,1,0,0,-5]];perimeter=orthogonalPerimeter;outlineConnect=0;targetShapes=umlLifeline;portConstraint=eastwest;newEdgeStyle={&quot;curved&quot;:0,&quot;rounded&quot;:0};" parent="1" vertex="1">
          <mxGeometry x="735" y="830" width="10" height="50" as="geometry" />
        </mxCell>
        <mxCell id="H9_4wdnQaWu5EiNkPN5X-44" value="" style="html=1;verticalAlign=bottom;endArrow=block;curved=0;rounded=0;" parent="1" edge="1">
          <mxGeometry width="80" relative="1" as="geometry">
            <mxPoint x="425" y="840" as="sourcePoint" />
            <mxPoint x="735" y="840" as="targetPoint" />
          </mxGeometry>
        </mxCell>
        <mxCell id="H9_4wdnQaWu5EiNkPN5X-45" value="Response" style="html=1;verticalAlign=bottom;endArrow=open;dashed=1;endSize=8;curved=0;rounded=0;" parent="1" target="H9_4wdnQaWu5EiNkPN5X-11" edge="1">
          <mxGeometry relative="1" as="geometry">
            <mxPoint x="730" y="870" as="sourcePoint" />
            <mxPoint x="650" y="870" as="targetPoint" />
          </mxGeometry>
        </mxCell>
        <mxCell id="H9_4wdnQaWu5EiNkPN5X-46" value="" style="line;strokeWidth=1;fillColor=none;align=left;verticalAlign=middle;spacingTop=-1;spacingLeft=3;spacingRight=3;rotatable=0;labelPosition=right;points=[];portConstraint=eastwest;strokeColor=inherit;dashed=1;" parent="1" vertex="1">
          <mxGeometry x="60" y="890" width="740" height="8" as="geometry" />
        </mxCell>
        <mxCell id="H9_4wdnQaWu5EiNkPN5X-47" value="&lt;font style=&quot;font-size: 10px;&quot;&gt;[ else ]&lt;/font&gt;" style="text;html=1;align=center;verticalAlign=middle;resizable=0;points=[];autosize=1;strokeColor=none;fillColor=none;" parent="1" vertex="1">
          <mxGeometry x="85" y="890" width="50" height="30" as="geometry" />
        </mxCell>
        <mxCell id="H9_4wdnQaWu5EiNkPN5X-48" value="" style="html=1;points=[[0,0,0,0,5],[0,1,0,0,-5],[1,0,0,0,5],[1,1,0,0,-5]];perimeter=orthogonalPerimeter;outlineConnect=0;targetShapes=umlLifeline;portConstraint=eastwest;newEdgeStyle={&quot;curved&quot;:0,&quot;rounded&quot;:0};" parent="1" vertex="1">
          <mxGeometry x="735" y="920" width="10" height="60" as="geometry" />
        </mxCell>
        <mxCell id="H9_4wdnQaWu5EiNkPN5X-49" value="" style="html=1;verticalAlign=bottom;endArrow=block;curved=0;rounded=0;" parent="1" edge="1">
          <mxGeometry width="80" relative="1" as="geometry">
            <mxPoint x="425" y="940" as="sourcePoint" />
            <mxPoint x="735" y="940" as="targetPoint" />
          </mxGeometry>
        </mxCell>
        <mxCell id="H9_4wdnQaWu5EiNkPN5X-50" value="&lt;font style=&quot;font-size: 10px;&quot;&gt;Response&lt;/font&gt;" style="html=1;verticalAlign=bottom;endArrow=open;dashed=1;endSize=8;curved=0;rounded=0;entryX=1;entryY=1;entryDx=0;entryDy=-5;entryPerimeter=0;" parent="1" edge="1">
          <mxGeometry relative="1" as="geometry">
            <mxPoint x="730" y="970" as="sourcePoint" />
            <mxPoint x="425" y="970" as="targetPoint" />
          </mxGeometry>
        </mxCell>
        <mxCell id="H9_4wdnQaWu5EiNkPN5X-53" value="&lt;font style=&quot;font-size: 10px;&quot;&gt;Withdraw Request&lt;/font&gt;" style="html=1;verticalAlign=bottom;endArrow=block;curved=0;rounded=0;" parent="1" source="H9_4wdnQaWu5EiNkPN5X-8" edge="1">
          <mxGeometry width="80" relative="1" as="geometry">
            <mxPoint x="330" y="160" as="sourcePoint" />
            <mxPoint x="410" y="160" as="targetPoint" />
          </mxGeometry>
        </mxCell>
        <mxCell id="sMN3Jm_nZXrrOU7xmv14-1" value="&lt;font style=&quot;font-size: 10px;&quot;&gt;Submit request ( Withdrawal amount, Bank information,&lt;/font&gt;&lt;div&gt;&lt;font style=&quot;font-size: 10px;&quot;&gt;Withdrawal mode, Authorization form information )&lt;/font&gt;&lt;/div&gt;" style="text;html=1;align=center;verticalAlign=middle;resizable=0;points=[];autosize=1;strokeColor=none;fillColor=none;" vertex="1" parent="1">
          <mxGeometry x="465" y="803" width="270" height="40" as="geometry" />
        </mxCell>
        <mxCell id="sMN3Jm_nZXrrOU7xmv14-2" value="&lt;font style=&quot;font-size: 10px;&quot;&gt;Submit request ( Withdrawal amount, Bank information,&amp;nbsp;&lt;/font&gt;&lt;div&gt;&lt;font style=&quot;font-size: 10px;&quot;&gt;Withdrawal mode )&lt;/font&gt;&lt;/div&gt;" style="text;html=1;align=center;verticalAlign=middle;resizable=0;points=[];autosize=1;strokeColor=none;fillColor=none;" vertex="1" parent="1">
          <mxGeometry x="450" y="905" width="270" height="40" as="geometry" />
        </mxCell>
      </root>
    </mxGraphModel>
  </diagram>
</mxfile>
